<?xml version="1.0" encoding="UTF-8"?>
<svg id="Layer_2" xmlns="http://www.w3.org/2000/svg" viewBox="0 0 24.25 24.25">
    <defs>
        <style>.cls-1{fill:rgba(255,255,255,.05);}.cls-1,.cls-2{stroke-width:.25px;}.cls-1,.cls-2,.cls-3{stroke:rgba(255,255,255,.5);stroke-miterlimit:10;}.cls-4,.cls-5{fill:#fff;}.cls-5{font-family:FranklinGothic-Demi, 'Franklin Gothic Demi';font-size:3.52px;letter-spacing:.1em;}.cls-2,.cls-3{fill:none;}.cls-3{stroke-width:.5px;}</style>
    </defs>
    <g id="Layer_1-2">
        <rect class="cls-1" x=".12" y=".12" width="24" height="24" />
        <g>
            <circle class="cls-2" cx="16.25" cy="4.4" r="1.2" />
            <path class="cls-2"
                d="M18.12,5.87h-2.69s0,.03,0,.05v4.93c0,.22-.18,.4-.4,.4h-.29v4.06c0,.21,.17,.39,.39,.39h.57c.21,0,.39-.17,.39-.39v-3.74c0-.11,.09-.19,.19-.19h0c.11,0,.19,.09,.19,.19v3.74c0,.21,.17,.39,.39,.39h.57c.21,0,.39-.17,.39-.39V7.2h.23v3.78h.36c.19,0,.34-.15,.34-.34V6.49c0-.34-.28-.62-.62-.62Z" />
            <circle class="cls-3" cx="8" cy="4.35" r="1.2" />
            <path class="cls-2"
                d="M8.81,10.85V5.92s0-.03,0-.05h-2.69c-.34,0-.62,.28-.62,.62v4.16c0,.19,.15,.34,.34,.34h.42v-3.78h.23V15.31c0,.21,.17,.39,.39,.39h.57c.21,0,.39-.17,.39-.39v-3.74c0-.11,.09-.19,.19-.19h0c.11,0,.19,.09,.19,.19v3.74c0,.21,.17,.39,.39,.39h.57c.21,0,.39-.17,.39-.39v-4.06h-.35c-.22,0-.4-.18-.4-.4Z" />
            <path class="cls-4"
                d="M12.12,1.87c.65,0,1.18,.53,1.18,1.18s-.53,1.18-1.18,1.18-1.18-.53-1.18-1.18,.53-1.18,1.18-1.18m0-.25c-.79,0-1.43,.64-1.43,1.43s.64,1.43,1.43,1.43,1.43-.64,1.43-1.43-.64-1.43-1.43-1.43h0Z" />
            <path class="cls-4"
                d="M14.35,5.1c.27,0,.48,.22,.48,.48v4.93c0,.08-.07,.15-.15,.15h-.17V6.18h-.77v9.88c0,.12-.09,.21-.21,.21h-.68c-.12,0-.21-.09-.21-.21v-4.44c0-.26-.22-.48-.49-.48s-.48,.22-.48,.48v4.44c0,.12-.09,.21-.21,.21h-.68c-.12,0-.21-.09-.21-.21V6.18h-.77v4.48h-.25c-.08,0-.15-.07-.15-.15V5.58c0-.27,.22-.48,.48-.48h4.44m0-.25h-4.44c-.41,0-.73,.33-.73,.73v4.93c0,.22,.18,.4,.4,.4h.5V6.43h.27v9.63c0,.25,.21,.46,.46,.46h.68c.25,0,.46-.21,.46-.46v-4.44c0-.13,.1-.23,.23-.23h0c.13,0,.23,.1,.23,.23v4.44c0,.25,.21,.46,.46,.46h.68c.25,0,.46-.21,.46-.46V6.43h.27v4.48h.42c.22,0,.4-.18,.4-.4V5.58c0-.41-.33-.73-.73-.73h0Z" />
            <text class="cls-5" transform="translate(6.82 21.55) scale(.86 1)">
                <tspan x="0" y="0">HRMS</tspan>
            </text>
        </g>
    </g>
</svg>