<?xml version="1.0" encoding="UTF-8"?>
<svg id="Layer_2" data-name="Layer 2" xmlns="http://www.w3.org/2000/svg" viewBox="0 0 9.69 10.67">
  <defs>
    <style>
      .cls-1 {
        fill: #fff;
        stroke: #fff;
        stroke-miterlimit: 10;
        stroke-width: .25px;
      }
    </style>
  </defs>
  <g id="Layer_1-2" data-name="Layer 1">
    <path class="cls-1" d="M9.15,3.22L5.53.36c-.4-.32-.96-.32-1.36,0L.54,3.22c-.26.21-.42.53-.42.86v5.36c0,.61.49,1.1,1.1,1.1h7.24c.61,0,1.1-.49,1.1-1.1v-5.36c0-.34-.15-.65-.42-.86ZM6.47,7.75c0,.32-.26.59-.59.59h-2.08c-.32,0-.59-.26-.59-.59v-2.7c0-.32.26-.59.59-.59h2.08c.32,0,.59.26.59.59v2.7Z"/>
  </g>
</svg>