<?xml version="1.0" encoding="UTF-8"?>
<svg id="Layer_2" xmlns="http://www.w3.org/2000/svg" viewBox="0 0 14.79 23.45">
  <defs>
    <style>
      .cls-1 {
        fill: #ed1c24;
        stroke: #fff;
        stroke-miterlimit: 10;
      }
    </style>
  </defs>
  <g id="Layer_1-2" data-name="Layer_1">
    <g>
      <polygon class="cls-1" points="3.41 5.62 4.26 1.3 5.41 2.09 5.63 4.07 6.04 2.09 7.2 6.16 7.39 2.09 8.39 1.14 9.08 2.02 9.78 5.55 10.68 2.09 13.25 2.09 13.25 10.23 1.54 10.23 1.54 2.09 3.03 1.14 3.41 5.62"/>
      <path class="cls-1" d="M13.44,10.23H1.35c-.47,0-.85.38-.85.85v3.31c0,.47.38.85.85.85h2.91c.47,0,.85.38.85.85l-.7,6.11c0,.47,1.08.74,1.55.74h2.84c.47,0,1.66-.17,1.66-.64l-.81-6.22c0-.47.38-.85.85-.85h2.94c.47,0,.85-.38.85-.85v-3.31c0-.47-.38-.85-.85-.85Z"/>
    </g>
  </g>
</svg>