
<svg  xmlns="http://www.w3.org/2000/svg" viewBox="0 0 31.19 31.19">
   
        <g>
            <rect class="rect-background" x=".12" y=".12" width="30.94" height="30.94" />
            <g>
                <g>
                    <path class="primary-building"
                        d="M12.34,2.97V21.97h6.5V2.97h-6.5Zm2.13,17.92h-1.67v-2.4h1.67v2.4Zm0-2.93h-1.67v-2.4h1.67v2.4Zm0-2.93h-1.67v-2.4h1.67v2.4Zm0-2.93h-1.67v-2.4h1.67v2.4Zm0-2.93h-1.67v-2.4h1.67v2.4Zm0-2.93h-1.67V3.84h1.67v2.4Zm1.96,14.66h-1.67v-2.4h1.67v2.4Zm0-2.93h-1.67v-2.4h1.67v2.4Zm0-2.93h-1.67v-2.4h1.67v2.4Zm0-2.93h-1.67v-2.4h1.67v2.4Zm0-2.93h-1.67v-2.4h1.67v2.4Zm0-2.93h-1.67V3.84h1.67v2.4Zm1.96,14.66h-1.67v-2.4h1.67v2.4Zm0-2.93h-1.67v-2.4h1.67v2.4Zm0-2.93h-1.67v-2.4h1.67v2.4Zm0-2.93h-1.67v-2.4h1.67v2.4Zm0-2.93h-1.67v-2.4h1.67v2.4Zm0-2.93h-1.67V3.84h1.67v2.4Z" />
                    <g>
                        <path class="secondary-building"
                            d="M7.09,7.43v13.88h4.75V7.43H7.09Zm1.56,13.09h-1.22v-1.75h1.22v1.75Zm0-2.14h-1.22v-1.75h1.22v1.75Zm0-2.14h-1.22v-1.75h1.22v1.75Zm0-2.14h-1.22v-1.75h1.22v1.75Zm0-2.14h-1.22v-1.75h1.22v1.75Zm0-2.14h-1.22v-1.75h1.22v1.75Zm1.43,10.71h-1.22v-1.75h1.22v1.75Zm0-2.14h-1.22v-1.75h1.22v1.75Zm0-2.14h-1.22v-1.75h1.22v1.75Zm0-2.14h-1.22v-1.75h1.22v1.75Zm0-2.14h-1.22v-1.75h1.22v1.75Zm0-2.14h-1.22v-1.75h1.22v1.75Zm1.43,10.71h-1.22v-1.75h1.22v1.75Zm0-2.14h-1.22v-1.75h1.22v1.75Zm0-2.14h-1.22v-1.75h1.22v1.75Zm0-2.14h-1.22v-1.75h1.22v1.75Zm0-2.14h-1.22v-1.75h1.22v1.75Zm0-2.14h-1.22v-1.75h1.22v1.75Z" />
                        <path class="secondary-building"
                            d="M19.34,7.31v13.88h4.75V7.31h-4.75Zm1.56,13.09h-1.22v-1.75h1.22v1.75Zm0-2.14h-1.22v-1.75h1.22v1.75Zm0-2.14h-1.22v-1.75h1.22v1.75Zm0-2.14h-1.22v-1.75h1.22v1.75Zm0-2.14h-1.22v-1.75h1.22v1.75Zm0-2.14h-1.22v-1.75h1.22v1.75Zm1.43,10.71h-1.22v-1.75h1.22v1.75Zm0-2.14h-1.22v-1.75h1.22v1.75Zm0-2.14h-1.22v-1.75h1.22v1.75Zm0-2.14h-1.22v-1.75h1.22v1.75Zm0-2.14h-1.22v-1.75h1.22v1.75Zm0-2.14h-1.22v-1.75h1.22v1.75Zm1.43,10.71h-1.22v-1.75h1.22v1.75Zm0-2.14h-1.22v-1.75h1.22v1.75Zm0-2.14h-1.22v-1.75h1.22v1.75Zm0-2.14h-1.22v-1.75h1.22v1.75Zm0-2.14h-1.22v-1.75h1.22v1.75Zm0-2.14h-1.22v-1.75h1.22v1.75Z" />
                    </g>
                </g>
                <g>
                    <path class="tnms-text" d="M8.67,25.03v3.69h-1.21v-3.69h-.86v-1.16h2.93v1.16h-.86Z" />
                    <path class="tnms-text"
                        d="M14.07,28.72h-1.04l-1.14-2.14c-.15-.28-.29-.61-.44-1,.07,.31,.1,.58,.1,.8v2.35h-1.04v-4.85h1.21l.97,1.78c.19,.35,.34,.66,.44,.93-.07-.41-.1-.84-.1-1.27v-1.44h1.04v4.85Z" />
                    <path class="tnms-text"
                        d="M19.94,23.86v4.85h-1.19v-3.47l-.77,3.47h-.81l-.8-3.47v3.47h-.96v-4.85h1.67l.6,2.58,.58-2.58h1.67Z" />
                    <path class="tnms-text"
                        d="M20.86,27.31l1.19-.25c.1,.39,.36,.59,.77,.59,.32,0,.48-.1,.48-.3,0-.1-.04-.19-.11-.24-.07-.06-.21-.11-.4-.15-.73-.16-1.2-.38-1.4-.64s-.31-.57-.31-.93c0-.46,.15-.84,.45-1.14,.3-.3,.73-.45,1.28-.45,.85,0,1.41,.4,1.68,1.19l-1.06,.37c-.11-.32-.33-.49-.67-.49-.28,0-.42,.1-.42,.3,0,.09,.03,.16,.09,.21,.06,.05,.18,.1,.37,.14,.5,.12,.85,.23,1.06,.33,.21,.09,.38,.26,.52,.49,.14,.23,.21,.5,.21,.81,0,.49-.17,.89-.51,1.19s-.79,.46-1.34,.46c-1.01,0-1.64-.49-1.88-1.48Z" />
                </g>
            </g>
        </g>
   
</svg>