
<svg  xmlns="http://www.w3.org/2000/svg" viewBox="0 0 96.05 96.05">
    
        <g>
            <g class="secondary-human-group">
                <circle class="secondary-human" cx="64.46" cy="17.25" r="4.79" />
                <path class="secondary-human"
                    d="M71.91,23.12h-10.7c0,.06,0,.13,0,.19v19.65c0,.88-.71,1.59-1.59,1.59h-1.16v16.17c0,.85,.69,1.54,1.54,1.54h2.27c.85,0,1.54-.69,1.54-1.54v-14.89c0-.42,.34-.77,.77-.77h.03c.42,0,.77,.34,.77,.77v14.89c0,.85,.69,1.54,1.54,1.54h2.27c.85,0,1.54-.69,1.54-1.54V28.43h.9v15.04h1.42c.74,0,1.34-.6,1.34-1.34V25.58c0-1.36-1.1-2.46-2.46-2.46Z" />
                <circle class="secondary-human" cx="31.59" cy="17.07" r="4.79" />
                <path class="secondary-human"
                    d="M34.83,42.96V23.31c0-.07,0-.13,0-.19h-10.7c-1.36,0-2.46,1.1-2.46,2.46v16.55c0,.74,.6,1.34,1.34,1.34h1.67v-15.04h.9V60.72c0,.85,.69,1.54,1.54,1.54h2.27c.85,0,1.54-.69,1.54-1.54v-14.89c0-.42,.34-.77,.77-.77h.03c.42,0,.77,.34,.77,.77v14.89c0,.85,.69,1.54,1.54,1.54h2.27c.85,0,1.54-.69,1.54-1.54v-16.17h-1.41c-.88,0-1.59-.71-1.59-1.59Z" />
            </g>
            <g class="secondary-human-group">
                <path class="primary-human"
                    d="M48.02,6.94c2.72,0,4.93,2.21,4.93,4.93s-2.21,4.93-4.93,4.93-4.93-2.21-4.93-4.93,2.21-4.93,4.93-4.93m0-.75c-3.14,0-5.68,2.54-5.68,5.68s2.54,5.68,5.68,5.68,5.68-2.54,5.68-5.68-2.54-5.68-5.68-5.68h0Z" />
                <path class="primary-human"
                    d="M56.86,19.8c1.2,0,2.17,.97,2.17,2.17v19.65c0,.46-.38,.84-.84,.84h-.93V24.6h-2.57V63.69c0,.59-.48,1.08-1.08,1.08h-2.69c-.59,0-1.08-.48-1.08-1.08v-17.68c0-.92-.75-1.66-1.69-1.66s-1.66,.75-1.66,1.66v17.68c0,.59-.48,1.08-1.08,1.08h-2.69c-.59,0-1.08-.48-1.08-1.08V24.6h-2.57v17.85h-1.23c-.46,0-.84-.38-.84-.84V21.97c0-1.2,.97-2.17,2.17-2.17h17.68m0-.75h-17.68c-1.61,0-2.92,1.31-2.92,2.92v19.65c0,.88,.71,1.59,1.59,1.59h1.98V25.35h1.07V63.69c0,1.01,.82,1.83,1.83,1.83h2.69c1.01,0,1.83-.82,1.83-1.83v-17.68c0-.5,.41-.91,.91-.91h.03c.5,0,.91,.41,.91,.91v17.68c0,1.01,.82,1.83,1.83,1.83h2.69c1.01,0,1.83-.82,1.83-1.83V25.35h1.07v17.85h1.68c.88,0,1.59-.71,1.59-1.59V21.97c0-1.61-1.31-2.92-2.92-2.92h0Z" />
            </g>
            <rect class="rect-backgrund" x=".25" y=".25" width="95.55" height="95.55" />
            <g class="hrms-text-group">
                <path class="hrms-text"
                    d="M27.77,71.07v16.45h-3.24v-6.79h-4.4v6.79h-3.24v-16.45h3.24v6.41h4.4v-6.41h3.24Z" />
                <path class="hrms-text"
                    d="M36.04,81v6.52h-3.33v-16.45h6.2c1.14,0,2.06,.15,2.75,.46s1.27,.88,1.72,1.7c.45,.83,.68,1.75,.68,2.76,0,1.98-.82,3.39-2.45,4.25l2.6,7.27h-3.65l-2.17-6.52h-2.37Zm0-7v4.19h2.02c.66,0,1.14-.05,1.44-.16s.57-.35,.8-.72,.35-.8,.35-1.28-.12-.87-.35-1.23-.49-.58-.76-.67-.79-.13-1.55-.13h-1.95Z" />
                <path class="hrms-text"
                    d="M54.98,87.52l-3.48-13.41v13.41h-2.77v-16.45h5.14l2.48,9.85,2.6-9.85h5.16v16.45h-3.33v-13.41l-3.55,13.41h-2.26Z" />
                <path class="hrms-text"
                    d="M78.78,74.68l-2.81,1.1c-.38-1.3-1.18-1.95-2.4-1.95-1.31,0-1.96,.49-1.96,1.48,0,.39,.12,.73,.37,1,.24,.27,.8,.51,1.66,.71,1.44,.34,2.49,.68,3.16,1.03,.67,.35,1.23,.9,1.69,1.67,.46,.77,.69,1.62,.69,2.57,0,1.49-.49,2.77-1.47,3.86-.98,1.08-2.43,1.63-4.36,1.63-1.44,0-2.67-.38-3.69-1.15-1.01-.77-1.68-1.91-2.01-3.42l3.06-.81c.34,1.53,1.3,2.3,2.87,2.3,.76,0,1.32-.17,1.69-.51s.56-.75,.56-1.22-.17-.86-.51-1.12c-.34-.27-.99-.51-1.95-.75-1.79-.43-3.07-1.03-3.84-1.78-.76-.75-1.14-1.85-1.14-3.3s.46-2.7,1.37-3.7c.91-1,2.15-1.51,3.71-1.51,2.77,0,4.54,1.29,5.33,3.87Z" />
            </g>
        </g>
   
</svg>