<svg id="Layer_2" xmlns="http://www.w3.org/2000/svg" viewBox="0 0 14.77 20.5">
  <g id="Layer_1-2" data-name="Layer_1">
    <path class="cls-1"
      d="M12.75,8.01v-3.2C12.75,2.3,10.38.25,7.46.25h-.16C4.4.25,2.02,2.3,2.02,4.81v3.2c-1.01.21-1.77.96-1.77,1.9v8.34c0,1.1,1.04,1.99,2.31,1.99h9.66c1.27,0,2.31-.89,2.31-1.99v-8.34c0-.94-.77-1.69-1.78-1.9ZM8.52,13.45v3.94c0,.53-.43.95-.95.95h-.35c-.53,0-.95-.43-.95-.95v-3.94c-.65-.39-1.11-1.07-1.11-1.89,0-1.24,1-2.24,2.24-2.24s2.24,1,2.24,2.24c0,.82-.46,1.5-1.11,1.89ZM10.44,7.92h-6.11v-3.1c0-1.42,1.33-2.57,2.98-2.57,1.76,0,3.13,1.13,3.13,2.57v3.1Z" />
  </g>
</svg>
