<?xml version="1.0" encoding="UTF-8"?><svg id="Layer_2" xmlns="http://www.w3.org/2000/svg" viewBox="0 0 96.05 96.05"><defs><style>.cls-1{fill:#fff;}.cls-2{stroke:#fff;}.cls-2,.cls-3{fill:none;}.cls-2,.cls-3,.cls-4{stroke-miterlimit:10;stroke-width:.5px;}.cls-3,.cls-4{stroke:rgba(255,255,255,.5);}.cls-4{fill:rgba(255,255,255,.05);}</style></defs><g id="Layer_1-2"><g><rect class="cls-4" x=".25" y=".25" width="95.55" height="95.55"/><g><path class="cls-1" d="M19.29,71.3v3.28h-3.19v13.3h-3.06v-13.3h-3.21v-3.28h9.47Z"/><path class="cls-1" d="M31.73,74.46h-6.14v3.4h4.83v3.12h-4.83v3.62h6.14v3.28h-9.21v-16.58h9.21v3.16Z"/><path class="cls-1" d="M45.39,71.3v16.58h-2.58l-5.05-11.2c0,.28,.01,.47,.02,.56,.03,.28,.04,.52,.04,.72v9.92h-2.35v-16.58h3.26l4.39,9.78c-.04-.49-.06-.85-.06-1.11v-8.67h2.33Z"/><path class="cls-1" d="M56.25,71.3l4.04,16.58h-3.25l-.79-3.41h-4.17l-.81,3.41h-2.65l4.13-16.58h3.5Zm-3.45,10.1h2.73l-1.35-5.82-1.38,5.82Z"/><path class="cls-1" d="M73.53,71.3v16.58h-2.58l-5.05-11.2c0,.28,.01,.47,.02,.56,.03,.28,.04,.52,.04,.72v9.92h-2.35v-16.58h3.26l4.39,9.78c-.04-.49-.06-.85-.06-1.11v-8.67h2.33Z"/><path class="cls-1" d="M86.23,71.3v3.28h-3.19v13.3h-3.06v-13.3h-3.21v-3.28h9.47Z"/></g><path class="cls-2" d="M34.63,11.1v54.58h26.78V11.1h-26.78Zm8.77,51.49h-6.88v-6.88h6.88v6.88Zm0-8.42h-6.88v-6.88h6.88v6.88Zm0-8.42h-6.88v-6.88h6.88v6.88Zm0-8.42h-6.88v-6.88h6.88v6.88Zm0-8.42h-6.88v-6.88h6.88v6.88Zm0-8.42h-6.88v-6.88h6.88v6.88Zm8.06,42.11h-6.88v-6.88h6.88v6.88Zm0-8.42h-6.88v-6.88h6.88v6.88Zm0-8.42h-6.88v-6.88h6.88v6.88Zm0-8.42h-6.88v-6.88h6.88v6.88Zm0-8.42h-6.88v-6.88h6.88v6.88Zm0-8.42h-6.88v-6.88h6.88v6.88Zm8.06,42.11h-6.88v-6.88h6.88v6.88Zm0-8.42h-6.88v-6.88h6.88v6.88Zm0-8.42h-6.88v-6.88h6.88v6.88Zm0-8.42h-6.88v-6.88h6.88v6.88Zm0-8.42h-6.88v-6.88h6.88v6.88Zm0-8.42h-6.88v-6.88h6.88v6.88Z"/><g><path class="cls-3" d="M13.03,23.91V63.77h19.56V23.91H13.03Zm6.41,37.61h-5.03v-5.03h5.03v5.03Zm0-6.15h-5.03v-5.03h5.03v5.03Zm0-6.15h-5.03v-5.03h5.03v5.03Zm0-6.15h-5.03v-5.03h5.03v5.03Zm0-6.15h-5.03v-5.03h5.03v5.03Zm0-6.15h-5.03v-5.03h5.03v5.03Zm5.89,30.75h-5.03v-5.03h5.03v5.03Zm0-6.15h-5.03v-5.03h5.03v5.03Zm0-6.15h-5.03v-5.03h5.03v5.03Zm0-6.15h-5.03v-5.03h5.03v5.03Zm0-6.15h-5.03v-5.03h5.03v5.03Zm0-6.15h-5.03v-5.03h5.03v5.03Zm5.89,30.75h-5.03v-5.03h5.03v5.03Zm0-6.15h-5.03v-5.03h5.03v5.03Zm0-6.15h-5.03v-5.03h5.03v5.03Zm0-6.15h-5.03v-5.03h5.03v5.03Zm0-6.15h-5.03v-5.03h5.03v5.03Zm0-6.15h-5.03v-5.03h5.03v5.03Z"/><path class="cls-3" d="M63.46,23.56V63.43h19.56V23.56h-19.56Zm6.41,37.61h-5.03v-5.03h5.03v5.03Zm0-6.15h-5.03v-5.03h5.03v5.03Zm0-6.15h-5.03v-5.03h5.03v5.03Zm0-6.15h-5.03v-5.03h5.03v5.03Zm0-6.15h-5.03v-5.03h5.03v5.03Zm0-6.15h-5.03v-5.03h5.03v5.03Zm5.89,30.75h-5.03v-5.03h5.03v5.03Zm0-6.15h-5.03v-5.03h5.03v5.03Zm0-6.15h-5.03v-5.03h5.03v5.03Zm0-6.15h-5.03v-5.03h5.03v5.03Zm0-6.15h-5.03v-5.03h5.03v5.03Zm0-6.15h-5.03v-5.03h5.03v5.03Zm5.89,30.75h-5.03v-5.03h5.03v5.03Zm0-6.15h-5.03v-5.03h5.03v5.03Zm0-6.15h-5.03v-5.03h5.03v5.03Zm0-6.15h-5.03v-5.03h5.03v5.03Zm0-6.15h-5.03v-5.03h5.03v5.03Zm0-6.15h-5.03v-5.03h5.03v5.03Z"/></g></g></g></svg>