<?xml version="1.0" encoding="UTF-8"?>
<svg id="Layer_2" data-name="Layer 2" xmlns="http://www.w3.org/2000/svg" viewBox="0 0 15.47 15.47">
  <defs>
    <style>
      .cls-1, .cls-2 {
        fill: #fff;
      }

      .cls-2, .cls-3 {
        stroke: #fff;
        stroke-miterlimit: 10;
        stroke-width: .25px;
      }

      .cls-3 {
        fill: none;
      }
    </style>
  </defs>
  <g id="Layer_1-2" data-name="Layer 1">
    <circle class="cls-3" cx="7.73" cy="7.73" r="7.61"/>
    <g>
      <rect class="cls-2" x="7.36" y="1.37" width=".75" height="10.28"/>
      <rect class="cls-2" x="5.64" y="4.48" width=".75" height="6.83"/>
      <rect class="cls-2" x="9.08" y="4.48" width=".75" height="6.83"/>
      <rect class="cls-2" x="3.92" y="6.68" width=".75" height="4.01"/>
      <rect class="cls-2" x="10.8" y="6.68" width=".75" height="4.01"/>
    </g>
    <g>
      <path class="cls-1" d="M6.17,13.94c.08.05.2.09.33.09.19,0,.3-.1.3-.24,0-.13-.08-.21-.27-.28-.23-.08-.38-.2-.38-.41,0-.22.18-.39.46-.39.15,0,.25.03.32.07l-.05.15s-.14-.07-.27-.07c-.2,0-.27.12-.27.22,0,.13.09.2.29.28.24.09.37.21.37.42,0,.22-.16.41-.5.41-.14,0-.29-.04-.37-.09l.05-.15Z"/>
      <path class="cls-1" d="M7.24,12.75c.09-.02.21-.03.36-.03.18,0,.32.04.4.12.08.07.13.17.13.3s-.04.23-.11.31c-.1.1-.26.16-.44.16-.05,0-.11,0-.15-.01v.57h-.19v-1.42ZM7.43,13.44s.09.01.15.01c.22,0,.36-.11.36-.31s-.13-.28-.34-.28c-.08,0-.14,0-.17.01v.56Z"/>
      <path class="cls-1" d="M9.13,14.17l-.18-.32c-.07-.12-.12-.2-.17-.28h0c-.04.08-.08.16-.16.28l-.17.31h-.21l.44-.73-.42-.71h.21l.19.34c.05.09.09.17.13.24h0c.04-.09.08-.15.13-.24l.2-.34h.21l-.44.7.45.74h-.21Z"/>
    </g>
  </g>
</svg>